<?xml version="1.0" encoding="UTF-8"?><!DOCTYPE svg PUBLIC "-//W3C//DTD SVG 1.1//EN" "http://www.w3.org/Graphics/SVG/1.1/DTD/svg11.dtd"><svg xmlns="http://www.w3.org/2000/svg" xmlns:xlink="http://www.w3.org/1999/xlink"><symbol id="filter-close" viewBox="0 0 12 12"><path d="M6.9 6l4.9-4.9c.2-.2.2-.6 0-.9s-.6-.2-.9 0L6 5.1 1.1.2C.9 0 .5 0 .2.2s-.2.6 0 .9L5.1 6 .2 10.9c-.2.2-.2.6 0 .9.2.2.6.2.9 0L6 6.9l4.9 4.9c.2.2.6.2.9 0 .2-.2.2-.6 0-.9L6.9 6z" fill="currentColor"/></symbol><symbol id="filter" viewBox="0 0 15 10"><path d="M4 0h2v2H4zM0 0h3v2H0zm7 0h8v2H7zM4 8h2v2H4zM0 8h3v2H0zm7 0h8v2H7zm2-4h2v2H9zm3 0h3v2h-3zM0 4h8v2H0z" fill="currentColor"/></symbol></svg>