<?xml version="1.0" encoding="UTF-8"?><!DOCTYPE svg PUBLIC "-//W3C//DTD SVG 1.1//EN" "http://www.w3.org/Graphics/SVG/1.1/DTD/svg11.dtd"><svg xmlns="http://www.w3.org/2000/svg" xmlns:xlink="http://www.w3.org/1999/xlink"><symbol id="small-arrow" viewBox="0 0 5 10"><path fill="#606161" d="M3 8.1V0H2v8.1l-2-2v1.4L2.5 10 5 7.5V6.1z"/></symbol><symbol id="small-cross" viewBox="0 0 9 9"><path d="M5.2 4.5L8.9.8c.1-.2.1-.5 0-.7s-.5-.1-.7 0L4.5 3.8.8.1C.6 0 .3 0 .1.1S0 .6.1.8l3.7 3.7L.1 8.2c-.1.2-.1.5 0 .7.1.1.3.1.4.1s.2 0 .3-.1l3.7-3.7 3.7 3.7c.1.1.2.1.3.1s.2 0 .3-.1c.2-.2.2-.5.1-.7L5.2 4.5z"/></symbol></svg>